<svg width="123" height="82" viewBox="0 0 123 82" fill="none" xmlns="http://www.w3.org/2000/svg">
<mask id="path-1-inside-1" fill="white">
<path fill-rule="evenodd" clip-rule="evenodd" d="M40.7754 -4.32446e-05L0 40.7754L40.7754 81.5508L61.2754 61.0508L81.7754 81.5508L122.551 40.7754L81.7754 -4.32446e-05L61.2754 20.5L40.7754 -4.32446e-05Z"/>
</mask>
<path fill-rule="evenodd" clip-rule="evenodd" d="M40.7754 -4.32446e-05L0 40.7754L40.7754 81.5508L61.2754 61.0508L81.7754 81.5508L122.551 40.7754L81.7754 -4.32446e-05L61.2754 20.5L40.7754 -4.32446e-05Z" fill="#090000"/>
<path d="M0 40.7754L-4.24264 36.5327L-8.48528 40.7754L-4.24264 45.018L0 40.7754ZM40.7754 -4.32446e-05L45.0181 -4.24268L40.7754 -8.48532L36.5328 -4.24268L40.7754 -4.32446e-05ZM40.7754 81.5508L36.5328 85.7935L40.7754 90.0361L45.0181 85.7935L40.7754 81.5508ZM61.2754 61.0508L65.5181 56.8082L61.2754 52.5655L57.0328 56.8082L61.2754 61.0508ZM81.7754 81.5508L77.5328 85.7935L81.7754 90.0361L86.0181 85.7935L81.7754 81.5508ZM122.551 40.7754L126.794 45.018L131.036 40.7754L126.794 36.5327L122.551 40.7754ZM81.7754 -4.32446e-05L86.0181 -4.24268L81.7754 -8.48532L77.5328 -4.24268L81.7754 -4.32446e-05ZM61.2754 20.5L57.0328 24.7426L61.2754 28.9852L65.5181 24.7426L61.2754 20.5ZM4.24264 45.018L45.0181 4.2426L36.5328 -4.24268L-4.24264 36.5327L4.24264 45.018ZM45.0181 77.3082L4.24264 36.5327L-4.24264 45.018L36.5328 85.7935L45.0181 77.3082ZM57.0328 56.8082L36.5328 77.3082L45.0181 85.7935L65.5181 65.2935L57.0328 56.8082ZM86.0181 77.3082L65.5181 56.8082L57.0328 65.2935L77.5328 85.7935L86.0181 77.3082ZM118.308 36.5327L77.5328 77.3082L86.0181 85.7935L126.794 45.018L118.308 36.5327ZM77.5328 4.2426L118.308 45.018L126.794 36.5327L86.0181 -4.24268L77.5328 4.2426ZM65.5181 24.7426L86.0181 4.2426L77.5328 -4.24268L57.0328 16.2573L65.5181 24.7426ZM36.5328 4.2426L57.0328 24.7426L65.5181 16.2573L45.0181 -4.24268L36.5328 4.2426Z" fill="#FFFDFD" mask="url(#path-1-inside-1)"/>
</svg>
