<svg width="99" height="60" viewBox="0 0 99 60" fill="none" xmlns="http://www.w3.org/2000/svg">
<mask id="path-1-inside-1" fill="white">
<path fill-rule="evenodd" clip-rule="evenodd" d="M50.0819 19.4524L30.6296 0L0 30.6296L28.8769 59.5064L48.3292 40.0541L67.7816 59.5064L98.4111 28.8769L69.5343 0L50.0819 19.4524Z"/>
</mask>
<path fill-rule="evenodd" clip-rule="evenodd" d="M50.0819 19.4524L30.6296 0L0 30.6296L28.8769 59.5064L48.3292 40.0541L67.7816 59.5064L98.4111 28.8769L69.5343 0L50.0819 19.4524Z" fill="#5E5E5E"/>
<path d="M30.6296 0L32.0438 -1.41421L30.6296 -2.82843L29.2153 -1.41421L30.6296 0ZM50.0819 19.4524L48.6677 20.8666L50.0819 22.2808L51.4961 20.8666L50.0819 19.4524ZM0 30.6296L-1.41421 29.2153L-2.82843 30.6296L-1.41421 32.0438L0 30.6296ZM28.8769 59.5064L27.4627 60.9207L28.8769 62.3349L30.2911 60.9207L28.8769 59.5064ZM48.3292 40.0541L49.7435 38.6399L48.3292 37.2257L46.915 38.6399L48.3292 40.0541ZM67.7816 59.5064L66.3674 60.9207L67.7816 62.3349L69.1958 60.9207L67.7816 59.5064ZM98.4111 28.8769L99.8254 30.2911L101.24 28.8769L99.8254 27.4627L98.4111 28.8769ZM69.5343 0L70.9485 -1.41421L69.5343 -2.82843L68.12 -1.41421L69.5343 0ZM29.2153 1.41421L48.6677 20.8666L51.4961 18.0381L32.0438 -1.41421L29.2153 1.41421ZM1.41421 32.0438L32.0438 1.41421L29.2153 -1.41421L-1.41421 29.2153L1.41421 32.0438ZM30.2911 58.0922L1.41421 29.2153L-1.41421 32.0438L27.4627 60.9207L30.2911 58.0922ZM46.915 38.6399L27.4627 58.0922L30.2911 60.9207L49.7435 41.4683L46.915 38.6399ZM69.1958 58.0922L49.7435 38.6399L46.915 41.4683L66.3674 60.9207L69.1958 58.0922ZM96.9969 27.4627L66.3674 58.0922L69.1958 60.9207L99.8254 30.2911L96.9969 27.4627ZM68.12 1.41421L96.9969 30.2911L99.8254 27.4627L70.9485 -1.41421L68.12 1.41421ZM51.4961 20.8666L70.9485 1.41421L68.12 -1.41421L48.6677 18.0381L51.4961 20.8666Z" fill="white" mask="url(#path-1-inside-1)"/>
</svg>
